# Blender v2.81 (sub 16) OBJ File: 'euro_pallet_FINAL.blend'
# www.blender.org
mtllib euro_pallet_FINAL.mtl
o Cube.019_Cube.020
v -0.600000 0.061000 0.212500
v -0.600000 0.083000 0.212500
v -0.600000 0.061000 0.112500
v -0.600000 0.083000 0.112500
v 0.600000 0.061000 0.212500
v 0.600000 0.083000 0.212500
v 0.600000 0.061000 0.112500
v 0.600000 0.083000 0.112500
v -0.072500 -0.039000 0.072500
v -0.072500 0.039000 0.072500
v -0.072500 -0.039000 -0.072500
v -0.072500 0.039000 -0.072500
v 0.072500 -0.039000 0.072500
v 0.072500 0.039000 0.072500
v 0.072500 -0.039000 -0.072500
v 0.072500 0.039000 -0.072500
v -0.600000 -0.061000 0.072500
v -0.600000 -0.039000 0.072500
v -0.600000 -0.061000 -0.072500
v -0.600000 -0.039000 -0.072500
v 0.600000 -0.061000 0.072500
v 0.600000 -0.039000 0.072500
v 0.600000 -0.061000 -0.072500
v 0.600000 -0.039000 -0.072500
v -0.600000 0.061000 0.072500
v -0.600000 0.083000 0.072500
v -0.600000 0.061000 -0.072500
v -0.600000 0.083000 -0.072500
v 0.600000 0.061000 0.072500
v 0.600000 0.083000 0.072500
v 0.600000 0.061000 -0.072500
v 0.600000 0.083000 -0.072500
v 0.455000 -0.039000 0.072500
v 0.455000 0.039000 0.072500
v 0.455000 -0.039000 -0.072500
v 0.455000 0.039000 -0.072500
v 0.600000 -0.039000 0.072500
v 0.600000 0.039000 0.072500
v 0.600000 -0.039000 -0.072500
v 0.600000 0.039000 -0.072500
v -0.600000 -0.039000 0.072500
v -0.600000 0.039000 0.072500
v -0.600000 -0.039000 -0.072500
v -0.600000 0.039000 -0.072500
v -0.455000 -0.039000 0.072500
v -0.455000 0.039000 0.072500
v -0.455000 -0.039000 -0.072500
v -0.455000 0.039000 -0.072500
v 0.072500 0.039000 0.400000
v 0.072500 0.061000 0.400000
v -0.072500 0.039000 0.400000
v -0.072500 0.061000 0.400000
v 0.072500 0.039000 -0.400000
v 0.072500 0.061000 -0.400000
v -0.072500 0.039000 -0.400000
v -0.072500 0.061000 -0.400000
v 0.455000 0.039000 0.400000
v 0.455000 0.061000 0.400000
v 0.455000 0.039000 -0.400000
v 0.455000 0.061000 -0.400000
v -0.455000 0.039000 0.400000
v -0.455000 0.061000 0.400000
v -0.455000 0.039000 -0.400000
v -0.455000 0.061000 -0.400000
v -0.072500 -0.039000 0.400000
v -0.072500 0.039000 0.400000
v -0.072500 -0.039000 0.300000
v -0.072500 0.039000 0.300000
v 0.072500 -0.039000 0.400000
v 0.072500 0.039000 0.400000
v 0.072500 -0.039000 0.300000
v 0.072500 0.039000 0.300000
v -0.600000 -0.061000 0.300000
v -0.600000 -0.039000 0.300000
v 0.600000 -0.061000 0.300000
v 0.600000 -0.039000 0.300000
v 0.455000 -0.039000 0.400000
v 0.455000 0.039000 0.400000
v 0.455000 -0.039000 0.300000
v 0.455000 0.039000 0.300000
v 0.600000 -0.039000 0.300000
v 0.600000 0.039000 0.300000
v -0.600000 -0.039000 0.300000
v -0.600000 0.039000 0.300000
v -0.455000 -0.039000 0.400000
v -0.455000 0.039000 0.400000
v -0.455000 -0.039000 0.300000
v -0.455000 0.039000 0.300000
v -0.072500 -0.039000 -0.300000
v -0.072500 0.039000 -0.300000
v -0.072500 -0.039000 -0.400000
v -0.072500 0.039000 -0.400000
v 0.072500 -0.039000 -0.300000
v 0.072500 0.039000 -0.300000
v 0.072500 -0.039000 -0.400000
v 0.072500 0.039000 -0.400000
v -0.600000 -0.061000 -0.300000
v -0.600000 -0.039000 -0.300000
v 0.600000 -0.061000 -0.300000
v 0.600000 -0.039000 -0.300000
v 0.455000 -0.039000 -0.300000
v 0.455000 0.039000 -0.300000
v 0.455000 -0.039000 -0.400000
v 0.455000 0.039000 -0.400000
v 0.600000 -0.039000 -0.300000
v 0.600000 0.039000 -0.300000
v -0.600000 -0.039000 -0.300000
v -0.600000 0.039000 -0.300000
v -0.455000 -0.039000 -0.300000
v -0.455000 0.039000 -0.300000
v -0.455000 -0.039000 -0.400000
v -0.455000 0.039000 -0.400000
v -0.600000 0.061000 0.255000
v -0.600000 0.083000 0.255000
v 0.600000 0.061000 0.255000
v 0.600000 0.083000 0.255000
v -0.600000 0.061000 -0.255000
v -0.600000 0.083000 -0.255000
v 0.600000 0.061000 -0.255000
v 0.600000 0.083000 -0.255000
v -0.600000 0.061000 -0.112500
v -0.600000 0.083000 -0.112500
v -0.600000 0.061000 -0.212500
v -0.600000 0.083000 -0.212500
v 0.600000 0.061000 -0.112500
v 0.600000 0.083000 -0.112500
v 0.600000 0.061000 -0.212500
v 0.600000 0.083000 -0.212500
v 0.600000 0.039000 0.383807
v 0.583807 0.039000 0.400000
v 0.583807 0.061000 0.400000
v 0.600000 0.061000 0.383807
v 0.583807 0.039000 -0.400000
v 0.600000 0.039000 -0.383807
v 0.600000 0.061000 -0.383807
v 0.583807 0.061000 -0.400000
v -0.583807 0.039000 0.400000
v -0.600000 0.039000 0.383807
v -0.600000 0.061000 0.383807
v -0.583807 0.061000 0.400000
v -0.600000 0.039000 -0.383807
v -0.583807 0.039000 -0.400000
v -0.583807 0.061000 -0.400000
v -0.600000 0.061000 -0.383807
v -0.583807 -0.061000 0.400000
v -0.600000 -0.061000 0.383807
v -0.600000 -0.039000 0.383807
v -0.583807 -0.039000 0.400000
v 0.600000 -0.061000 0.383807
v 0.583807 -0.061000 0.400000
v 0.583807 -0.039000 0.400000
v 0.600000 -0.039000 0.383807
v 0.600000 -0.039000 0.383807
v 0.583807 -0.039000 0.400000
v 0.583807 0.039000 0.400000
v 0.600000 0.039000 0.383807
v -0.583807 -0.039000 0.400000
v -0.600000 -0.039000 0.383807
v -0.600000 0.039000 0.383807
v -0.583807 0.039000 0.400000
v -0.600000 -0.061000 -0.383807
v -0.583807 -0.061000 -0.400000
v -0.583807 -0.039000 -0.400000
v -0.600000 -0.039000 -0.383807
v 0.583807 -0.061000 -0.400000
v 0.600000 -0.061000 -0.383807
v 0.600000 -0.039000 -0.383807
v 0.583807 -0.039000 -0.400000
v 0.583807 -0.039000 -0.400000
v 0.600000 -0.039000 -0.383807
v 0.600000 0.039000 -0.383807
v 0.583807 0.039000 -0.400000
v -0.600000 -0.039000 -0.383807
v -0.583807 -0.039000 -0.400000
v -0.583807 0.039000 -0.400000
v -0.600000 0.039000 -0.383807
v -0.583807 0.061000 0.400000
v -0.600000 0.061000 0.383807
v -0.600000 0.083000 0.383807
v -0.583807 0.083000 0.400000
v 0.600000 0.061000 0.383807
v 0.583807 0.061000 0.400000
v 0.583807 0.083000 0.400000
v 0.600000 0.083000 0.383807
v -0.600000 0.061000 -0.383807
v -0.583807 0.061000 -0.400000
v -0.583807 0.083000 -0.400000
v -0.600000 0.083000 -0.383807
v 0.583807 0.061000 -0.400000
v 0.600000 0.061000 -0.383807
v 0.600000 0.083000 -0.383807
v 0.583807 0.083000 -0.400000
vt 0.703286 0.856790
vt 0.693771 0.856790
vt 0.693771 0.807407
vt 0.703286 0.807407
vt 0.952422 0.592593
vt 0.942906 0.592593
vt 0.942906 0.000000
vt 0.952422 0.000000
vt 0.693771 0.856790
vt 0.684255 0.856790
vt 0.684255 0.807407
vt 0.693771 0.807407
vt 0.933391 0.000000
vt 0.942906 0.000000
vt 0.942906 0.592593
vt 0.933391 0.592593
vt 0.674740 0.592593
vt 0.674739 0.000000
vt 0.717992 0.000000
vt 0.717992 0.592593
vt 0.761245 0.000000
vt 0.761245 0.592593
vt 0.717992 0.592593
vt 0.717992 0.000000
vt 0.761245 0.664198
vt 0.727508 0.664198
vt 0.727508 0.592593
vt 0.761245 0.592593
vt 0.794982 0.664198
vt 0.761245 0.664198
vt 0.761245 0.592593
vt 0.794982 0.592593
vt 0.828718 0.879012
vt 0.794982 0.879012
vt 0.794982 0.807407
vt 0.828718 0.807407
vt 0.592559 0.807407
vt 0.626296 0.807407
vt 0.626296 0.879012
vt 0.592559 0.879012
vt 0.439013 0.592593
vt 0.501729 0.592593
vt 0.501729 0.664198
vt 0.439013 0.664198
vt 0.439013 0.664198
vt 0.376297 0.664198
vt 0.376297 0.592593
vt 0.439013 0.592593
vt 0.703286 0.664198
vt 0.693771 0.664198
vt 0.693771 0.592593
vt 0.703286 0.592593
vt 0.990484 0.000000
vt 1.000000 0.000000
vt 1.000000 0.592593
vt 0.990484 0.592593
vt 0.693771 0.664198
vt 0.703286 0.664198
vt 0.703286 0.735803
vt 0.693771 0.735803
vt 0.952422 0.000000
vt 0.961938 0.000000
vt 0.961938 0.592593
vt 0.952422 0.592593
vt 0.376297 0.592593
vt 0.376297 0.000000
vt 0.439013 0.000000
vt 0.439013 0.592593
vt 0.313581 0.000000
vt 0.313581 0.592593
vt 0.250865 0.592593
vt 0.250865 0.000000
vt 0.665224 0.664198
vt 0.655708 0.664198
vt 0.655708 0.592593
vt 0.665224 0.592593
vt 0.914359 0.592593
vt 0.904844 0.592593
vt 0.904844 0.000000
vt 0.914359 0.000000
vt 0.655708 0.735803
vt 0.646193 0.735803
vt 0.646193 0.664198
vt 0.655708 0.664198
vt 0.923875 0.000000
vt 0.933391 0.000000
vt 0.933391 0.592593
vt 0.923875 0.592593
vt 0.313581 0.592593
vt 0.313581 0.000000
vt 0.376297 0.000000
vt 0.376297 0.592593
vt 0.501729 0.000000
vt 0.501729 0.592593
vt 0.439013 0.592593
vt 0.439013 0.000000
vt 0.443771 0.950617
vt 0.410034 0.950617
vt 0.410034 0.879012
vt 0.443771 0.879012
vt 0.828718 0.664198
vt 0.794982 0.664198
vt 0.794982 0.592593
vt 0.828718 0.592593
vt 0.794982 0.879012
vt 0.761245 0.879012
vt 0.761245 0.807407
vt 0.794982 0.807407
vt 0.443771 0.879012
vt 0.477508 0.879012
vt 0.477508 0.950617
vt 0.564445 0.664198
vt 0.564445 0.592593
vt 0.627161 0.592593
vt 0.627161 0.664198
vt 0.564445 0.592593
vt 0.564445 0.664198
vt 0.501729 0.664198
vt 0.501729 0.592593
vt 0.761245 0.807407
vt 0.727508 0.807407
vt 0.727508 0.735803
vt 0.761245 0.735803
vt 0.578719 0.950617
vt 0.544982 0.950617
vt 0.544982 0.879012
vt 0.578719 0.879012
vt 0.794981 0.950617
vt 0.761245 0.950617
vt 0.761245 0.879012
vt 0.794981 0.879012
vt 0.511245 0.879012
vt 0.544982 0.879012
vt 0.544982 0.950617
vt 0.511245 0.950617
vt 0.376297 0.735802
vt 0.376297 0.664198
vt 0.439013 0.664198
vt 0.439013 0.735802
vt 0.501729 0.664198
vt 0.501729 0.735802
vt 0.439013 0.735802
vt 0.439013 0.664198
vt 0.655708 0.807407
vt 0.665224 0.807407
vt 0.665224 0.879012
vt 0.655708 0.879012
vt 0.684255 0.987654
vt 0.674740 0.987654
vt 0.674739 0.592593
vt 0.684255 0.592593
vt 0.655708 0.879012
vt 0.646193 0.879012
vt 0.646193 0.807407
vt 0.655708 0.807407
vt 0.636677 0.987654
vt 0.627162 0.987654
vt 0.627161 0.592593
vt 0.636677 0.592593
vt 0.313581 0.987654
vt 0.313581 0.592593
vt 0.376297 0.592593
vt 0.376297 0.987654
vt 0.188149 0.987654
vt 0.188149 0.592593
vt 0.250865 0.592593
vt 0.250865 0.987654
vt 0.717992 0.979658
vt 0.708477 0.979658
vt 0.708477 0.600589
vt 0.717992 0.600589
vt 0.646193 0.987654
vt 0.636677 0.987654
vt 0.636677 0.592593
vt 0.646193 0.592593
vt 0.257869 0.987654
vt 0.250865 0.979658
vt 0.250865 0.600589
vt 0.257869 0.592593
vt 0.313581 0.592593
vt 0.313581 0.987654
vt 0.000000 0.987654
vt 0.000000 0.592593
vt 0.055712 0.592593
vt 0.062716 0.600589
vt 0.062716 0.979658
vt 0.055712 0.987654
vt 0.693771 0.743799
vt 0.703286 0.743799
vt 0.703286 0.807407
vt 0.693771 0.807407
vt 0.655708 0.735803
vt 0.665224 0.735803
vt 0.665224 0.799411
vt 0.655708 0.799411
vt 0.674739 0.979658
vt 0.665224 0.979658
vt 0.665224 0.600589
vt 0.674739 0.600589
vt 0.132436 0.987654
vt 0.125432 0.979658
vt 0.125432 0.600589
vt 0.132436 0.592593
vt 0.188148 0.592593
vt 0.188149 0.987654
vt 0.544982 0.592593
vt 0.544982 0.000000
vt 0.581230 0.000000
vt 0.588234 0.007997
vt 0.588234 0.584596
vt 0.581230 0.592593
vt 0.717992 0.592593
vt 0.727508 0.592593
vt 0.727508 0.987654
vt 0.717992 0.987654
vt 0.684255 0.735803
vt 0.693771 0.735803
vt 0.693771 0.799411
vt 0.684255 0.799411
vt 0.655708 0.799411
vt 0.646193 0.799411
vt 0.646193 0.735803
vt 0.655708 0.735803
vt 0.862455 0.906173
vt 0.828718 0.906173
vt 0.828718 0.856790
vt 0.862455 0.856790
vt 0.761245 0.735803
vt 0.794982 0.735803
vt 0.794982 0.807407
vt 0.761245 0.807407
vt 0.862455 0.691358
vt 0.828718 0.691358
vt 0.828718 0.641975
vt 0.862455 0.641975
vt 0.588234 0.664198
vt 0.621971 0.664198
vt 0.621971 0.735802
vt 0.588234 0.735802
vt 0.462802 0.807407
vt 0.462802 0.879012
vt 0.419549 0.879012
vt 0.419549 0.807407
vt 0.376297 0.879012
vt 0.376297 0.807407
vt 0.419549 0.807407
vt 0.419549 0.879012
vt 0.847750 0.007997
vt 0.857265 0.007997
vt 0.857265 0.584596
vt 0.847750 0.584596
vt 0.980969 0.000000
vt 0.990484 0.000000
vt 0.990484 0.592593
vt 0.980969 0.592593
vt 0.419549 0.735802
vt 0.419549 0.807407
vt 0.383301 0.807407
vt 0.376297 0.799411
vt 0.376297 0.735802
vt 0.544982 0.000000
vt 0.544982 0.592593
vt 0.508733 0.592593
vt 0.501729 0.584596
vt 0.501729 0.007997
vt 0.508733 0.000000
vt 0.588234 0.920398
vt 0.578719 0.920398
vt 0.578719 0.879012
vt 0.588234 0.879012
vt 0.665224 0.928395
vt 0.655708 0.928395
vt 0.655708 0.887009
vt 0.665224 0.887009
vt 0.477508 1.000000
vt 0.443771 1.000000
vt 0.443771 0.950617
vt 0.477508 0.950617
vt 0.592559 0.879012
vt 0.626296 0.879012
vt 0.626296 0.950617
vt 0.592559 0.950617
vt 0.727508 0.672194
vt 0.761245 0.672194
vt 0.761245 0.735803
vt 0.727508 0.735803
vt 0.501729 0.735803
vt 0.501729 0.664198
vt 0.544982 0.664198
vt 0.544982 0.727806
vt 0.537978 0.735802
vt 0.828718 0.977778
vt 0.794982 0.977778
vt 0.794982 0.936392
vt 0.828718 0.936392
vt 0.419549 0.807407
vt 0.419549 0.735802
vt 0.462802 0.735802
vt 0.462802 0.799411
vt 0.455798 0.807407
vt 0.592559 0.735802
vt 0.626296 0.735802
vt 0.626296 0.799411
vt 0.592559 0.799411
vt 0.794982 0.735802
vt 0.828718 0.735802
vt 0.828718 0.807407
vt 0.794982 0.807407
vt 0.862455 0.790124
vt 0.828718 0.790124
vt 0.828718 0.740741
vt 0.862455 0.740741
vt 0.592559 0.735802
vt 0.592559 0.807407
vt 0.556311 0.807407
vt 0.549307 0.799411
vt 0.549307 0.735802
vt 0.862455 0.848794
vt 0.828718 0.848794
vt 0.828718 0.807407
vt 0.862455 0.807407
vt 0.595239 0.592593
vt 0.588235 0.584596
vt 0.588234 0.007997
vt 0.595238 0.000000
vt 0.631487 0.000000
vt 0.631487 0.592593
vt 0.410034 1.000000
vt 0.376297 1.000000
vt 0.376297 0.950617
vt 0.410034 0.950617
vt 0.761245 0.879012
vt 0.727508 0.879012
vt 0.727508 0.807407
vt 0.761245 0.807407
vt 0.862455 0.740741
vt 0.828718 0.740741
vt 0.828718 0.691358
vt 0.862455 0.691358
vt 0.761245 0.664198
vt 0.794982 0.664198
vt 0.794982 0.735803
vt 0.761245 0.735803
vt 0.592559 0.807407
vt 0.592559 0.879012
vt 0.549307 0.879012
vt 0.549307 0.807407
vt 0.506054 0.879012
vt 0.506054 0.807407
vt 0.549307 0.807407
vt 0.549307 0.879012
vt 0.885812 0.584596
vt 0.876297 0.584596
vt 0.876297 0.007997
vt 0.885812 0.007997
vt 0.667735 0.000000
vt 0.674739 0.007997
vt 0.674740 0.584596
vt 0.667736 0.592593
vt 0.631487 0.592593
vt 0.631487 0.000000
vt 0.588234 0.664198
vt 0.588234 0.727806
vt 0.581230 0.735803
vt 0.544982 0.735803
vt 0.544982 0.664198
vt 0.895328 0.000000
vt 0.904844 0.000000
vt 0.904844 0.592593
vt 0.895328 0.592593
vt 0.693771 0.955556
vt 0.684255 0.955556
vt 0.684255 0.914170
vt 0.693771 0.914170
vt 0.646193 0.887009
vt 0.655708 0.887009
vt 0.655708 0.928395
vt 0.646193 0.928395
vt 0.443771 1.000000
vt 0.410034 1.000000
vt 0.410034 0.950617
vt 0.443771 0.950617
vt 0.828718 0.920398
vt 0.794981 0.920398
vt 0.794982 0.879012
vt 0.828718 0.879012
vt 0.469806 0.807407
vt 0.462802 0.799411
vt 0.462802 0.735802
vt 0.506054 0.735802
vt 0.506054 0.807407
vt 0.727508 0.879012
vt 0.761245 0.879012
vt 0.761245 0.950617
vt 0.727508 0.950617
vt 0.410034 0.950617
vt 0.376297 0.950617
vt 0.376297 0.887009
vt 0.410034 0.887009
vt 0.469806 0.879012
vt 0.462802 0.871016
vt 0.462802 0.807407
vt 0.506054 0.807407
vt 0.506054 0.879012
vt 0.828718 0.727806
vt 0.794982 0.727806
vt 0.794982 0.664198
vt 0.828718 0.664198
vt 0.549307 0.735802
vt 0.549307 0.799411
vt 0.542303 0.807407
vt 0.506054 0.807407
vt 0.506054 0.735802
vt 0.862455 0.641975
vt 0.828718 0.641975
vt 0.828718 0.592593
vt 0.862455 0.592593
vt 0.477508 0.879012
vt 0.511245 0.879012
vt 0.511245 0.950617
vt 0.477508 0.950617
vt 0.862455 0.955556
vt 0.828718 0.955556
vt 0.828718 0.914170
vt 0.862455 0.914170
vt 0.188149 0.592593
vt 0.188149 0.000000
vt 0.243861 0.000000
vt 0.250865 0.007997
vt 0.250865 0.584596
vt 0.243861 0.592593
vt 0.961938 0.007997
vt 0.971453 0.007997
vt 0.971453 0.584596
vt 0.961938 0.584596
vt 0.876297 0.592593
vt 0.866781 0.592593
vt 0.866781 0.000000
vt 0.876296 0.000000
vt 0.007004 0.592593
vt 0.000000 0.584596
vt 0.000000 0.007997
vt 0.007004 0.000000
vt 0.062716 0.000000
vt 0.062716 0.592593
vt 0.188148 0.000000
vt 0.188149 0.592593
vt 0.132436 0.592593
vt 0.125432 0.584596
vt 0.125432 0.007997
vt 0.132436 0.000000
vt 0.693771 0.727806
vt 0.684255 0.727806
vt 0.684255 0.664198
vt 0.693771 0.664198
vt 0.693771 0.664198
vt 0.684255 0.664198
vt 0.684255 0.600589
vt 0.693771 0.600589
vt 0.895328 0.584596
vt 0.885812 0.584596
vt 0.885812 0.007997
vt 0.895328 0.007997
vt 0.118428 0.000000
vt 0.125432 0.007997
vt 0.125432 0.584596
vt 0.118428 0.592593
vt 0.062716 0.592593
vt 0.062716 0.000000
vt 0.857265 0.000000
vt 0.866781 0.000000
vt 0.866781 0.592593
vt 0.857265 0.592593
vt 0.655708 0.664198
vt 0.646193 0.664198
vt 0.646193 0.600589
vt 0.655708 0.600589
vt 0.665224 0.727806
vt 0.655708 0.727806
vt 0.655708 0.664198
vt 0.665224 0.664198
vt 0.703286 0.906173
vt 0.693771 0.906173
vt 0.693771 0.856790
vt 0.703286 0.856790
vt 0.923875 0.592593
vt 0.914359 0.592593
vt 0.914359 0.000000
vt 0.923875 0.000000
vt 0.693771 0.906173
vt 0.684255 0.906173
vt 0.684255 0.856790
vt 0.693771 0.856790
vt 0.971453 0.000000
vt 0.980969 0.000000
vt 0.980969 0.592593
vt 0.971453 0.592593
vt 0.804497 0.592593
vt 0.804497 0.000000
vt 0.847750 0.000000
vt 0.847750 0.592593
vt 0.804497 0.000000
vt 0.804497 0.592593
vt 0.761245 0.592593
vt 0.761245 0.000000
vt 0.708476 0.592593
vt 0.717992 0.592593
vt 0.717992 0.987654
vt 0.708477 0.987654
vt 0.674739 0.987654
vt 0.665224 0.987654
vt 0.655708 0.807407
vt 0.646193 0.807407
vt 0.857265 0.592593
vt 0.847750 0.592593
vt 0.847750 0.000000
vt 0.857265 0.000000
vt 0.727508 0.664198
vt 0.761245 0.664198
vt 0.626296 0.807407
vt 0.592559 0.807407
vt 0.885812 0.592593
vt 0.876297 0.592593
vt 0.646193 0.879012
vt 0.655708 0.879012
vt 0.828718 0.928395
vt 0.794982 0.928395
vt 0.828718 0.735802
vt 0.794982 0.735802
vt 0.971453 0.592593
vt 0.961938 0.592593
vt 0.961938 0.000000
vt 0.971453 0.000000
vt 0.895328 0.592593
vt 0.885812 0.592593
vt 0.665224 0.735803
vt 0.655708 0.735803
vt 0.125432 0.592593
vt 0.125432 0.987654
vt 0.069720 0.987654
vt 0.062716 0.979658
vt 0.062716 0.600589
vt 0.069720 0.592593
vn -1.0000 0.0000 0.0000
vn 0.0000 0.0000 -1.0000
vn 1.0000 0.0000 0.0000
vn 0.0000 0.0000 1.0000
vn 0.0000 -1.0000 0.0000
vn 0.0000 1.0000 0.0000
vn 0.7071 0.0000 0.7071
vn 0.7071 0.0000 -0.7071
vn -0.7071 0.0000 0.7071
vn -0.7071 0.0000 -0.7071
usemtl Material.001
s off
f 1/1/1 2/2/1 4/3/1 3/4/1
f 3/5/2 4/6/2 8/7/2 7/8/2
f 7/9/3 8/10/3 6/11/3 5/12/3
f 5/13/4 6/14/4 2/15/4 1/16/4
f 3/17/5 7/18/5 5/19/5 1/20/5
f 8/21/6 4/22/6 2/23/6 6/24/6
f 9/25/1 10/26/1 12/27/1 11/28/1
f 11/29/2 12/30/2 16/31/2 15/32/2
f 15/33/3 16/34/3 14/35/3 13/36/3
f 13/37/4 14/38/4 10/39/4 9/40/4
f 11/41/5 15/42/5 13/43/5 9/44/5
f 16/45/6 12/46/6 10/47/6 14/48/6
f 17/49/1 18/50/1 20/51/1 19/52/1
f 19/53/2 20/54/2 24/55/2 23/56/2
f 23/57/3 24/58/3 22/59/3 21/60/3
f 21/61/4 22/62/4 18/63/4 17/64/4
f 19/65/5 23/66/5 21/67/5 17/68/5
f 24/69/6 20/70/6 18/71/6 22/72/6
f 25/73/1 26/74/1 28/75/1 27/76/1
f 27/77/2 28/78/2 32/79/2 31/80/2
f 31/81/3 32/82/3 30/83/3 29/84/3
f 29/85/4 30/86/4 26/87/4 25/88/4
f 27/89/5 31/90/5 29/91/5 25/92/5
f 32/93/6 28/94/6 26/95/6 30/96/6
f 33/97/1 34/98/1 36/99/1 35/100/1
f 35/101/2 36/102/2 40/103/2 39/104/2
f 39/105/3 40/106/3 38/107/3 37/108/3
f 37/109/4 38/110/4 34/111/4 33/97/4
f 35/112/5 39/113/5 37/114/5 33/115/5
f 40/116/6 36/117/6 34/118/6 38/119/6
f 41/120/1 42/121/1 44/122/1 43/123/1
f 43/124/2 44/125/2 48/126/2 47/127/2
f 47/128/3 48/129/3 46/130/3 45/131/3
f 45/132/4 46/133/4 42/134/4 41/135/4
f 43/136/5 47/137/5 45/138/5 41/139/5
f 48/140/6 44/141/6 42/142/6 46/143/6
f 49/144/4 50/145/4 52/146/4 51/147/4
f 51/148/1 52/149/1 56/150/1 55/151/1
f 55/152/2 56/153/2 54/154/2 53/155/2
f 53/156/3 54/157/3 50/158/3 49/159/3
f 51/160/5 55/161/5 53/162/5 49/163/5
f 56/164/6 52/165/6 50/166/6 54/167/6
f 134/168/3 135/169/3 132/170/3 129/171/3
f 57/172/1 58/173/1 60/174/1 59/175/1
f 137/176/5 138/177/5 141/178/5 142/179/5 63/180/5 61/181/5
f 60/182/6 58/183/6 131/184/6 132/185/6 135/186/6 136/187/6
f 130/188/4 131/189/4 58/190/4 57/191/4
f 59/192/2 60/193/2 136/194/2 133/195/2
f 138/196/1 139/197/1 144/198/1 141/199/1
f 143/200/6 144/201/6 139/202/6 140/203/6 62/204/6 64/205/6
f 73/206/5 75/207/5 149/208/5 150/209/5 145/210/5 146/211/5
f 63/212/3 64/213/3 62/214/3 61/215/3
f 61/216/4 62/217/4 140/218/4 137/219/4
f 142/220/2 143/221/2 64/222/2 63/223/2
f 65/224/1 66/225/1 68/226/1 67/227/1
f 67/228/2 68/229/2 72/230/2 71/231/2
f 71/232/3 72/233/3 70/234/3 69/235/3
f 69/236/4 70/237/4 66/238/4 65/239/4
f 67/240/5 71/241/5 69/242/5 65/243/5
f 72/244/6 68/245/6 66/246/6 70/247/6
f 150/248/4 151/249/4 148/250/4 145/251/4
f 73/252/2 74/253/2 76/254/2 75/255/2
f 79/256/5 81/257/5 153/258/5 154/259/5 77/260/5
f 76/261/6 74/262/6 147/263/6 148/264/6 151/265/6 152/266/6
f 146/267/1 147/268/1 74/269/1 73/270/1
f 75/271/3 76/272/3 152/273/3 149/274/3
f 77/275/1 78/276/1 80/277/1 79/278/1
f 79/279/2 80/280/2 82/281/2 81/282/2
f 154/283/4 155/284/4 78/285/4 77/286/4
f 82/287/6 80/288/6 78/289/6 155/290/6 156/291/6
f 81/292/3 82/293/3 156/294/3 153/295/3
f 83/296/5 87/297/5 85/298/5 157/299/5 158/300/5
f 85/301/4 86/302/4 160/303/4 157/304/4
f 83/305/2 84/306/2 88/307/2 87/308/2
f 87/309/3 88/310/3 86/311/3 85/312/3
f 88/313/6 84/314/6 159/315/6 160/316/6 86/317/6
f 158/318/1 159/319/1 84/320/1 83/321/1
f 161/322/5 162/323/5 165/324/5 166/325/5 99/326/5 97/327/5
f 89/328/1 90/329/1 92/330/1 91/331/1
f 91/332/2 92/333/2 96/334/2 95/335/2
f 95/336/3 96/337/3 94/338/3 93/339/3
f 93/340/4 94/341/4 90/342/4 89/343/4
f 91/344/5 95/345/5 93/346/5 89/347/5
f 96/348/6 92/349/6 90/350/6 94/351/6
f 162/352/2 163/353/2 168/354/2 165/355/2
f 167/356/6 168/357/6 163/358/6 164/359/6 98/360/6 100/361/6
f 103/362/5 169/363/5 170/364/5 105/365/5 101/366/5
f 99/367/4 100/368/4 98/369/4 97/370/4
f 97/371/1 98/372/1 164/373/1 161/374/1
f 166/375/3 167/376/3 100/377/3 99/378/3
f 101/379/1 102/380/1 104/381/1 103/382/1
f 170/383/3 171/384/3 106/385/3 105/386/3
f 171/387/6 172/388/6 104/389/6 102/390/6 106/391/6
f 105/392/4 106/393/4 102/394/4 101/395/4
f 103/396/2 104/397/2 172/398/2 169/399/2
f 173/400/5 174/401/5 111/402/5 109/403/5 107/404/5
f 174/405/2 175/406/2 112/407/2 111/408/2
f 112/409/6 175/410/6 176/411/6 108/412/6 110/413/6
f 111/414/3 112/415/3 110/416/3 109/417/3
f 109/418/4 110/419/4 108/420/4 107/421/4
f 107/422/1 108/423/1 176/424/1 173/425/1
f 113/426/5 115/427/5 181/428/5 182/429/5 177/430/5 178/431/5
f 182/432/4 183/433/4 180/434/4 177/435/4
f 113/436/2 114/437/2 116/438/2 115/439/2
f 185/440/5 186/441/5 189/442/5 190/443/5 119/444/5 117/445/5
f 116/446/6 114/447/6 179/448/6 180/449/6 183/450/6 184/451/6
f 178/452/1 179/453/1 114/454/1 113/455/1
f 115/456/3 116/457/3 184/458/3 181/459/3
f 186/460/2 187/461/2 192/462/2 189/463/2
f 191/464/6 192/465/6 187/466/6 188/467/6 118/468/6 120/469/6
f 119/470/4 120/471/4 118/472/4 117/473/4
f 117/474/1 118/475/1 188/476/1 185/477/1
f 190/478/3 191/479/3 120/480/3 119/481/3
f 121/482/1 122/483/1 124/484/1 123/485/1
f 123/486/2 124/487/2 128/488/2 127/489/2
f 127/490/3 128/491/3 126/492/3 125/493/3
f 125/494/4 126/495/4 122/496/4 121/497/4
f 123/498/5 127/499/5 125/500/5 121/501/5
f 128/502/6 124/503/6 122/504/6 126/505/6
f 129/171/7 132/170/7 131/506/7 130/507/7
f 135/169/8 134/168/8 133/508/8 136/509/8
f 139/197/9 138/196/9 137/510/9 140/511/9
f 143/221/10 142/220/10 141/512/10 144/513/10
f 145/251/9 148/250/9 147/514/9 146/515/9
f 151/249/7 150/248/7 149/516/7 152/517/7
f 155/284/7 154/283/7 153/518/7 156/519/7
f 157/304/9 160/303/9 159/520/9 158/521/9
f 163/353/10 162/352/10 161/522/10 164/523/10
f 167/376/8 166/375/8 165/524/8 168/525/8
f 171/384/8 170/383/8 169/526/8 172/527/8
f 175/406/10 174/405/10 173/528/10 176/529/10
f 177/435/9 180/434/9 179/530/9 178/531/9
f 183/433/7 182/432/7 181/532/7 184/533/7
f 187/461/10 186/460/10 185/534/10 188/535/10
f 191/479/8 190/478/8 189/536/8 192/537/8
f 57/538/5 59/539/5 133/540/5 134/541/5 129/542/5 130/543/5
